# xmcd CD database file
#
# Track frame offsets:
#	150
#	17762
#	36050
#	51862
#	66550
#	85037
#	98650
#	118137
#	131937
#	152762
#	169912
#	182387
#	194525
#	213162
#	227325
#	239662
#	253037
#	267562
#
# Disc length: 3739 seconds
#
# Revision: 0
# Processed by: cddbd v1.4PL0 Copyright (c) Steve Scherf et al.
# Submitted via: CDex 1.50
#
DISCID=000e9912
DTITLE=Country Guitars - 18 Golden Greats
DYEAR=1900
DGENRE=Country
TTITLE0=I Saw the Light
TTITLE1=She's In Love With The Boy
TTITLE2=Achy Breaky Heart
TTITLE3=Mama He's Crazy
TTITLE4=Yellow Rose
TTITLE5=Sharing The Night Together
TTITLE6=Shameless
TTITLE7=Highwayman
TTITLE8=Love Can Build A Bridge
TTITLE9=Talk of the Town
TTITLE10=Boys From The Bush
TTITLE11=Rollin' With The Flow
TTITLE12=Theree Chain Road
TTITLE13=Wlk Rioght In
TTITLE14=Crazy
TTITLE15=We Burry The Hatchet
TTITLE16=The Outback Club
TTITLE17=Here You Come Again
EXTD=
EXTT0=
EXTT1=
EXTT2=
EXTT3=
EXTT4=
EXTT5=
EXTT6=
EXTT7=
EXTT8=
EXTT9=
EXTT10=
EXTT11=
EXTT12=
EXTT13=
EXTT14=
EXTT15=
EXTT16=
EXTT17=
PLAYORDER=
